# xmcd CD database file
#
# Track frame offsets:
#	150
#	12208
#	21936
#	34681
#	45236
#	57784
#	67831
#	76421
#	85706
#	96060
#	106402
#	115992
#	127728
#	139578
#	150193
#	160496
#
# Disc length: 2265 seconds
#
# Revision: 0
# Processed by: cddbd v1.5.1PL0 Copyright (c) Steve Scherf et al.
# Submitted via: CDex 1.51
#
DISCID=b108d710
DTITLE=Johnny Cash - The Country Collection
DYEAR=2001
DGENRE=Country
TTITLE0=I Walk the Line
TTITLE1=Rock Island Line
TTITLE2=Give my Love to Rose
TTITLE3=Hey Porter
TTITLE4=Folsom Prison Blues
TTITLE5=Get Rythem
TTITLE6=Guess Things Happen That Way
TTITLE7=Blue Train
TTITLE8=Goodbye Litte Darlin
TTITLE9=The Ways of a Woman in Love
TTITLE10=Down the Street to 301
TTITLE11=Thanks Alot
TTITLE12=Youre the Nearest Thing to Heaven
TTITLE13=I Heard that Lonesome Whistle Blow
TTITLE14=There You Go
TTITLE15=Luther Played the Boogie
EXTD=YEAR: 2001
EXTT0=
EXTT1=
EXTT2=
EXTT3=
EXTT4=
EXTT5=
EXTT6=
EXTT7=
EXTT8=
EXTT9=
EXTT10=
EXTT11=
EXTT12=
EXTT13=
EXTT14=
EXTT15=
PLAYORDER=
